<?xml version="1.0" encoding="utf-8"?>
<!-- Generator: Adobe Illustrator 18.0.0, SVG Export Plug-In . SVG Version: 6.00 Build 0)  -->
<!DOCTYPE svg PUBLIC "-//W3C//DTD SVG 1.1//EN" "http://www.w3.org/Graphics/SVG/1.1/DTD/svg11.dtd">
<svg version="1.1" id="Layer_1" xmlns="http://www.w3.org/2000/svg" xmlns:xlink="http://www.w3.org/1999/xlink" x="0px" y="0px"
	 viewBox="0 0 141.7 1417.3" enable-background="new 0 0 141.7 1417.3" xml:space="preserve">
<g>
	<g>
		<g>
			<path fill="#79879F" d="M80.3,1329.1c5.2-198.7-0.5-398.4-3.3-597c-3-215.9,4-431.6,2.3-647.7c-0.3-32.2-12-32.3-11.8,0
				c1.7,216.1-4.9,431.7-2.3,647.7c2.5,198.9,8.4,398,3.3,597C67.7,1361.2,79.5,1360.9,80.3,1329.1L80.3,1329.1z"/>
		</g>
	</g>
	<g>
		<g>
			<path fill="#79879F" d="M78.7,1379.6c8.7-7.9,15.9-17,22.5-26.7c2.7-3.9-0.9-8.6-5.1-8.8c-15-0.9-30.1-0.1-45.1,0
				c-4.7,0-8.4,6.7-4.2,10c8.8,6.9,16.4,15,22.6,24.3c4.2,6.3,14.4,0.4,10.2-5.9c-6.7-10.1-14.8-19.1-24.4-26.7
				c-1.4,3.3-2.8,6.7-4.2,10c15-0.1,30.1-0.9,45.1,0c-1.7-2.9-3.4-5.9-5.1-8.8c-6,8.9-12.7,17.1-20.6,24.3
				C64.8,1376.4,73.1,1384.7,78.7,1379.6z"/>
		</g>
	</g>
	<g>
		<g>
			<path fill="#79879F" d="M51.9,67.1c10.4-6.7,19.8-14.8,28.6-23.5c-2.4,0.3-4.8,0.6-7.1,0.9c6.7,5.1,12,11.5,16.5,18.5
				c1.2-2.9,2.3-5.8,3.5-8.6c-15,2.8-29.5,2.8-44.5,1.7c-7.6-0.5-7.5,11.3,0,11.8C65,69,80.6,68.7,96.6,65.7
				c3.7-0.7,5.5-5.6,3.5-8.6c-5.7-8.8-12.4-16.3-20.7-22.7c-2.1-1.6-5.4-0.8-7.1,0.9C64.1,43.2,55.5,50.8,46,56.9
				C39.6,61,45.5,71.2,51.9,67.1z"/>
		</g>
	</g>
</g>
</svg>
