<?xml version="1.0" encoding="utf-8"?>
<!-- Generator: Adobe Illustrator 18.0.0, SVG Export Plug-In . SVG Version: 6.00 Build 0)  -->
<!DOCTYPE svg PUBLIC "-//W3C//DTD SVG 1.1//EN" "http://www.w3.org/Graphics/SVG/1.1/DTD/svg11.dtd">
<svg version="1.1" id="Layer_1" xmlns="http://www.w3.org/2000/svg" xmlns:xlink="http://www.w3.org/1999/xlink" x="0px" y="0px"
	 viewBox="0 0 300 300" enable-background="new 0 0 300 300" xml:space="preserve">
<g>
	<path fill="#476991" d="M39.9,177.8l-22.4,6c-0.3-1.3-0.6-2.5-0.9-3.8c-1.8-8.3-2.7-16.7-2.9-24.9h23.2c0-1.2-0.1-2.3-0.1-3.4
		c0-0.7,0-1.4,0-2.1H13.7c0.1-10.2,1.5-20.2,3.8-29.9l22.4,6c0.3-1.1,0.6-2.3,0.9-3.3c0.2-0.7,0.4-1.3,0.6-2l-22.4-6
		c2.7-9.7,6.7-19.1,11.5-27.9l20.1,11.7c0.6-1,1.1-2.1,1.7-3c0.3-0.6,0.7-1.2,1.1-1.8L33,81.7c5.2-8.6,11.3-16.7,18.2-24l16.5,16.5
		c0.8-0.9,1.6-1.7,2.4-2.4c0.5-0.5,1-1,1.5-1.5L55.1,53.8c7.2-7,15.2-13.2,23.8-18.5l11.6,20.2c1-0.6,2-1.2,2.9-1.8
		c0.6-0.3,1.2-0.7,1.8-1L83.7,32.5c8.6-4.8,17.9-8.7,27.8-11.7l6,22.4c1.1-0.3,2.2-0.7,3.3-1c0.7-0.2,1.4-0.4,2-0.5l-6-22.4
		c1.6-0.4,3.2-0.8,4.8-1.1c8.4-1.8,16.9-2.7,25.3-2.9v23.2c1.1,0,2.1,0,3.1,0c0.8,0,1.6,0,2.4,0V15.4c10.2,0.2,20.2,1.5,29.9,3.8
		l-6,22.4c1,0.2,2,0.5,3,0.8c0.8,0.2,1.6,0.4,2.4,0.7l6-22.4c9.7,2.8,19.1,6.7,27.8,11.5l-11.7,20.1c0.9,0.5,1.8,1,2.7,1.5
		c0.7,0.4,1.4,0.8,2.1,1.2l11.7-20.1c8.6,5.2,16.7,11.4,24,18.3l-16.5,16.5c0.8,0.7,1.5,1.5,2.3,2.2c0.6,0.6,1.2,1.2,1.7,1.8
		L248.3,57c7,7.2,13.1,15.2,18.4,23.9l-20.3,11.6c0.5,0.9,1.1,1.8,1.6,2.6c0.4,0.7,0.8,1.4,1.2,2.1l20.2-11.6
		c4.8,8.7,8.7,18,11.6,27.8l-22.4,6c0.3,1,0.6,2,0.9,2.9c0.2,0.8,0.4,1.6,0.6,2.4l22.4-6c0.4,1.5,0.7,3,1.1,4.5
		c1.9,8.8,2.8,17.6,3,26.3h-23.2c0,0.7,0,1.4,0,2.1c0,1.2,0,2.4-0.1,3.4h23.2c-0.3,10.2-1.7,20.2-4.1,29.9l-22.4-6
		c-0.2,0.7-0.3,1.4-0.5,2c-0.3,1.1-0.6,2.3-1,3.3l22.4,6c-2.8,9.7-6.9,19-11.7,27.8L249,206.5c-0.3,0.6-0.7,1.2-1,1.8
		c-0.6,1-1.2,2-1.8,2.9l30.6,17.6c19-31.2,26.6-69.5,18.4-108C278.2,40.6,199.3-10.5,119.1,6.4C39,23.5-12.3,102.4,4.8,182.5
		c3.5,16.4,9.6,31.7,17.7,45.3L53,209.9c-0.4-0.6-0.7-1.2-1-1.8c-0.5-0.9-1-1.8-1.5-2.7l-20.1,11.6c-4.7-8.7-8.6-18-11.5-27.9
		l22.4-6c-0.2-0.8-0.4-1.6-0.7-2.4C40.4,179.9,40.2,178.8,39.9,177.8z"/>
	<path fill="#476991" d="M160.1,149.9c1.5,5.7-2,11.5-7.6,12.8c-5.7,1.5-11.5-2-12.8-7.6c-1.5-5.7,2-11.5,7.6-12.8
		S158.6,144.3,160.1,149.9z M166.3,148.3c-2.4-9.1-11.6-14.5-20.6-12.2C132.2,139.5,26,185.5,26,185.5s114.5-13.1,128-16.6
		C163.1,166.6,168.6,157.4,166.3,148.3z"/>
</g>
</svg>
