<?xml version="1.0" encoding="utf-8"?>
<!-- Generator: Adobe Illustrator 18.0.0, SVG Export Plug-In . SVG Version: 6.00 Build 0)  -->
<!DOCTYPE svg PUBLIC "-//W3C//DTD SVG 1.1//EN" "http://www.w3.org/Graphics/SVG/1.1/DTD/svg11.dtd">
<svg version="1.1" id="Layer_1" xmlns="http://www.w3.org/2000/svg" xmlns:xlink="http://www.w3.org/1999/xlink" x="0px" y="0px"
	 viewBox="0 0 300 300" enable-background="new 0 0 300 300" xml:space="preserve">
<path fill="#476991" stroke="#476991" stroke-width="4" stroke-miterlimit="10" d="M254.2,294c-0.8-0.1-1.5-0.1-2.3-0.2
	c-2.5-0.2-4.9-0.4-7.2-0.7c-0.2-2.2-0.2-4.4-0.3-6.8c-0.2-17.8,2.8-41.9,6.1-67.9c4.6-35.9,9.7-76.6,8.9-115.5
	c-1-48-32.5-89.3-74.9-98.1c-11.1-2.3-22.5-2.5-33.6-0.4c-3.8,0.7-7.7,0.8-11.4,0.2c-10-1.6-44.6-4.6-70.1,21
	C42,53.1,34,103.8,45.7,176.3c0.3,1.7,0.8,4.2,1.4,7.3c4,21.1,14.4,75.7,3.1,108c-0.2,0.7-0.5,1.4-0.8,2c-0.5,0-0.9,0.1-1.4,0.1
	c-0.8,0.1-1.5,0.1-2.3,0.2c-1.1,0.1-1.9,1-1.8,2.1c0.1,1,0.9,1.8,1.9,1.8c0,0,0.1,0,0.1,0c0.5,0,1.1-0.1,1.6-0.1
	c1.5-0.1,3-0.2,4.6-0.4c3.5-0.3,7.1-0.7,10.7-1.2c1.8-0.2,3.6-0.5,5.4-0.8c5.6-0.9,11.2-2,16.3-3.3c2.1-0.6,4.1-1.2,6.1-1.8
	c6.3-2.1,11.7-4.8,15.2-8.1c5.8-5.5,8.8-14.3,8.9-26.3c0.1-5.5-0.5-11.6-1.6-18.2c2,1.5,3.9,3,5.9,4.4c8,5.7,21.6,12.3,32.7,13.3
	l1,0c10.4-1.3,22.5-7.7,30.4-13.3c1.1-0.8,2.2-1.6,3.3-2.5c-0.9,5.8-1.3,11.3-1.3,16.2c0.1,12,3.1,20.9,8.9,26.3
	c3.9,3.7,10,6.5,17.3,8.8c1.4,0.4,2.9,0.9,4.4,1.3c3.9,1,8.1,1.9,12.4,2.6c1.4,0.2,2.7,0.5,4.1,0.7c2.9,0.4,5.8,0.8,8.7,1.2
	c1.4,0.2,2.7,0.3,4.1,0.4c3,0.3,6,0.6,8.9,0.8c0,0,0.1,0,0.1,0c1,0,1.9-0.8,1.9-1.8C256.1,295,255.3,294,254.2,294z M180.9,238.8
	c-7.5,5.3-18.9,11.5-28.4,12.6l-0.6,0c-9.7-0.9-22.7-7-30.6-12.6c-3.1-2.2-6.2-4.6-9.3-7.1c-0.3-0.2-0.6-0.5-0.9-0.7
	c-0.5-0.4-0.9-0.8-1.4-1.2c-1.3-1.1-2.6-2.2-3.8-3.3c-8.9-8-15.7-16-20.9-24.5c-1.6-2.7-3.2-6.4-4.8-10.8c-0.4-1.1-0.8-2.3-1.2-3.5
	c-3.9-12.3-7.4-28.2-9.8-40.7c-0.2-1.3-0.5-2.5-0.7-3.7c-0.4-1.9-0.7-3.7-1-5.4c0.5,0,1,0.1,1.5,0.1c4.9,0,10.1-1.7,15.4-4.5
	c23.4-12.2,49.3-45.9,56.3-55.5c5.8,9.9,26.5,41.9,57.4,54.4c10.2,4.2,21.6,6.1,33.9,4.5c-0.3,2.1-0.5,4.3-0.9,6.7
	c-0.1,0.9-0.2,1.8-0.4,2.8c-1.8,13-4.3,28.7-8.1,41.1c-0.4,1.4-0.8,2.7-1.3,4c-0.6,1.7-1.2,3.2-1.8,4.7c-0.5,1.3-1.1,2.4-1.6,3.5
	c-0.4,0.8-0.8,1.5-1.2,2.2c-5.2,8.5-12,16.6-20.8,24.5c-1.5,1.4-3.1,2.8-4.8,4.1c-0.1,0.1-0.3,0.2-0.4,0.3c-0.4,0.3-0.7,0.6-1.1,0.9
	c-0.1,0.1-0.1,0.1-0.2,0.2c-0.8,0.6-1.6,1.2-2.3,1.9C185.3,235.6,183.1,237.3,180.9,238.8z M74.8,186.7c-6.3-2.3-14.2-8.1-16.9-15.7
	c-3.3-9.5-3-17.8,0.6-21.6c1.6-1.7,3.9-2.5,6.9-2.5C67.7,159,71,174.3,74.8,186.7z M234.9,147c3.4-0.2,6,0.6,7.8,2.4
	c3.6,3.8,3.9,12.1,0.6,21.6c-2.5,7.2-9.7,12.8-15.8,15.3C230.6,175.2,232.9,161.5,234.9,147z M210.7,286.6c-6.3-2.1-11-4.6-13.9-7.4
	c-5-4.7-7.6-12.6-7.7-23.5c-0.1-5.9,0.6-12.5,1.9-19.7c0.6-0.5,1.2-0.9,1.7-1.4c0.3-0.2,0.5-0.4,0.8-0.6c1.8-1.5,3.6-3,5.3-4.6
	c7.2-6.5,13.1-13.1,17.9-19.9c-1.6,10.9-3.9,27.8-5.3,43.9C210.4,266.2,209.9,278.5,210.7,286.6z M240.7,292.7
	c-3.2-0.4-6.2-0.8-9.1-1.2c-0.6-4.7-0.6-11.1-0.3-18.4c1.2-29.7,8.1-74,8.1-74.6c0.2-1.1-0.6-2.1-1.6-2.2c-1-0.2-2.1,0.6-2.2,1.6
	c-0.4,2.4-6.5,42-8,71.5c-0.4,8.3-0.5,15.8,0.1,21.4c-4.8-0.8-9.1-1.8-12.9-2.9c-1-6.8-0.7-18.2,0.4-30.9
	c1.5-18.8,4.5-40.7,6.9-55.8c1.5-3,2.8-6.4,4.1-10.3c7.6-2.2,17.6-9.2,20.9-18.6c3.8-11.1,3.3-20.6-1.5-25.6
	c-2.4-2.5-5.8-3.7-10-3.6c0.3-2.2,0.6-4.5,0.9-6.7c0.2-1.3,0.3-2.6,0.5-4c0,0,0-0.1,0-0.1c-0.7,0.1-1.3,0.3-2,0.4
	c-0.7,0.1-1.3,0.2-2,0.3c-7.4,1.1-14.4,0.7-21.1-0.6c-41.6-8.6-68.5-58.2-68.8-58.8c-0.3-0.6-0.9-1-1.6-1c-0.7-0.1-1.3,0.3-1.7,0.8
	c-0.4,0.6-39.2,55-66.1,60.3c-0.2,0-0.4,0.1-0.6,0.1c0.1,0,0.1-0.1,0.2-0.1c18.4-10.3,37.8-48.1,38.8-50c0.5-1,0.1-2.1-0.9-2.6
	c-1-0.5-2.1-0.1-2.6,0.9c-6.7,13.1-26.3,46-41,49.9c15.2-12.3,28.7-39.7,29.4-41.1c0.5-1,0.1-2.1-0.9-2.6c-1-0.5-2.1-0.1-2.6,0.9
	c-0.2,0.4-21,42.7-38.3,44.8c-1.1,0.1-1.8,1.1-1.7,2.2c0.1,1,1,1.7,1.9,1.7c0.1,0,0.2,0,0.2,0c2.5-0.3,5.1-1.3,7.6-2.9
	c0,0.1,0.1,0.3,0.2,0.4c0.4,2.2,0.8,4.8,1.4,7.7c-3.7,0.1-6.8,1.3-9,3.7c-4.7,4.9-5.3,14.5-1.5,25.6c3.4,9.9,14.3,17.1,22,18.9
	c1.8,5.2,3.6,9.7,5.5,12.8c5.4,8.9,12.5,17.2,21.6,25.4c1.5,1.4,3.2,2.8,4.8,4.2c0.1,0.1,0.2,0.2,0.3,0.2c1.6,8.1,2.4,15.4,2.4,21.9
	c-0.1,10.9-2.7,18.8-7.7,23.5c-2.4,2.2-5.8,4.2-10.3,6c4.3-11.7,3.9-27.7,2.8-39.1c-0.7-7.9-1.8-13.6-1.9-14.4
	c-0.2-1.1-1.2-1.7-2.3-1.6c-1.1,0.2-1.8,1.2-1.6,2.3c0,0.2,1.4,7.6,2.1,17.3c0.9,12,0.8,27.5-4.1,37.2c-5,1.6-10.8,2.9-17.6,4.1
	c3-6.8,4.7-15.8,5.6-25.3c2.5-27.2-1.5-59.3-1.8-61.3c-0.1-1.1-1.1-1.8-2.2-1.7c-1.1,0.1-1.8,1.1-1.7,2.2c0.1,0.5,4.8,37.4,1.4,65.1
	c-1.1,8.6-2.9,16.3-5.9,21.8c-3.8,0.5-7.8,1-12.1,1.4c0.9-2.4,1.6-4.9,2.3-7.5c8.2-33.1-1-80.8-5.2-102.8c-0.6-3.1-1.1-5.6-1.3-7.2
	C38.1,104.5,45.7,54.9,72.1,28.3C96.3,3.9,129.3,6.9,138.9,8.3c4.2,0.6,8.5,0.6,12.7-0.2c10.7-2,21.5-1.9,32.1,0.4
	c40.6,8.5,70.8,48.2,71.8,94.4c0.8,38.7-4.3,79.2-8.9,114.9c-3.2,25.3-6,47.3-6.2,64.4C240.4,286,240.5,289.5,240.7,292.7z
	 M240.2,115.9c0.3,1-0.2,2.1-1.2,2.5c-6.1,2-11.9,2.9-17.6,2.9c-39.8,0-68.7-43.9-68.9-44.4c-0.5-0.9-0.1-2,0.8-2.6
	c0.9-0.5,2-0.2,2.6,0.6c0.4,0.6,36.7,54.9,81.9,39.7C238.8,114.3,239.9,114.8,240.2,115.9z"/>
</svg>
