<svg fill="#476991" xmlns="http://www.w3.org/2000/svg" xmlns:xlink="http://www.w3.org/1999/xlink" version="1.1" x="0px" y="0px" viewBox="0 0 64 64" style="enable-background:new 0 0 64 64;" xml:space="preserve"><g><path d="M38.8,20.5c-1.4,0.4-2.3,1.4-2.4,2.7c0,0.2-0.1,0.6-0.1,1l0,0.3c-0.1,0.7-0.1,1.1-0.1,1.3c-0.1,3.4-0.1,7.1,0,11.5   c0,1,0.3,2,0.7,2.9c0.4,0.9,1,1.7,1.8,2.6c0,0,0.1,0.1,0.1,0.1l0,0.9c0.1,1.9,0.2,3.9,0.3,5.8l0,0.3c0,0.2,0,0.3,0,0.5l0,2.3   c0,0.9,0,1.8,0,2.7c0,2.5,1.1,4.7,3.1,6.1c1.5,1.1,3.4,1.7,5.6,1.7l1.8,0l1.8,0c2.1,0,4-0.6,5.6-1.7c2-1.4,3.1-3.6,3.1-6.1   c0-0.9,0-1.8,0-2.7l0-2.3c0-0.1,0-0.3,0-0.5l0-0.5c0.1-1.9,0.2-3.8,0.3-5.6l0-0.9c0,0,0.1-0.1,0.1-0.1c0.8-0.9,1.4-1.7,1.8-2.6   c0.4-0.9,0.7-1.9,0.7-2.9c0.1-4.3,0.1-8.1,0-11.4c0-0.3-0.1-0.7-0.1-1.4l0-0.3c-0.1-0.4-0.1-0.9-0.1-1c-0.1-1.3-0.9-2.3-2.3-2.7   l-0.1,0c-1-0.3-2.1-0.6-3.1-0.9c-0.1,0-0.3-0.1-0.4-0.1l-0.5-0.2c-0.5-0.2-0.9-0.3-1.2-0.3l-0.6-0.1l-4.9,4.5l-4.9-4.5L44,18.9   c-0.3,0.1-0.6,0.2-1.2,0.3l-0.4,0.1c-0.2,0-0.3,0.1-0.4,0.1c-1,0.3-2.1,0.6-3.1,0.9L38.8,20.5z M39.4,22.9l0.1,0   c1.1-0.3,2.1-0.6,3.2-0.9c0.1,0,0.2-0.1,0.3-0.1l0.6-0.2c0.1,0,0.2-0.1,0.4-0.1l4.3,4c0.3,0.3,0.7,0.6,1.2,0.6l0.1,0l0.1,0   c0.5,0,0.9-0.2,1.2-0.6l4.3-4c0.1,0,0.2,0.1,0.3,0.1l0.5,0.2l0.1,0c0.1,0,0.2,0.1,0.3,0.1c1.1,0.3,2.1,0.6,3.2,0.9l0.2,0   c0.2,0.1,0.5,0.2,0.5,0.4c0,0.2,0.1,0.7,0.1,1.2l0,0.3c0,0.4,0.1,0.9,0.1,1.1l0,0c0.1,3.3,0.1,7,0,11.3c0,0.6-0.2,1.3-0.4,1.9   c-0.3,0.6-0.8,1.3-1.4,2l-0.1,0.1c-0.1,0.1-0.2,0.3-0.4,0.5L57.9,42l-0.1,1.6c-0.1,1.9-0.2,3.8-0.3,5.7l0,0.4c0,0.1,0,0.3,0,0.4   l0,0.1l0,2.5c0,0.9,0,1.8,0,2.7c0,1.7-0.7,3.2-2,4.1c-1.1,0.8-2.5,1.2-4.1,1.2l-1.8,0l-1.8,0c-1.6,0-3-0.4-4.1-1.2   c-1.3-1-2.1-2.4-2.1-4.1c0-0.9,0-1.8,0-2.7l0-2.4l0-0.2c0-0.1,0-0.2,0-0.3l0-0.3c-0.1-2-0.2-4-0.3-5.9l-0.1-1.6l-0.2-0.3   c-0.1-0.1-0.2-0.3-0.3-0.5l-0.1-0.1l0,0c-0.6-0.7-1.1-1.4-1.4-2c-0.3-0.6-0.4-1.2-0.4-1.9c-0.1-4.3-0.1-8,0-11.4   c0-0.1,0.1-0.7,0.1-1.1l0-0.3c0.1-0.5,0.1-1,0.1-1.2C38.9,23.1,39.2,23,39.4,22.9z"></path><path d="M49.5,16.3c0,0,0.1,0,0.1,0c1.9,0,3.8-0.8,5.3-2.2c1.5-1.5,2.4-3.5,2.4-5.4c0-2-0.8-4-2.2-5.4c-1.5-1.5-3.4-2.3-5.4-2.3   c0,0,0,0-0.1,0c-4.2,0-7.7,3.4-7.8,7.6C41.7,12.5,45.3,16.2,49.5,16.3z M49.6,3.3C49.6,3.3,49.6,3.3,49.6,3.3   c1.4,0,2.7,0.6,3.7,1.6c1,1,1.5,2.3,1.5,3.7c0,1.3-0.6,2.7-1.7,3.7c-1,1-2.4,1.6-3.6,1.5h0c-2.7,0-5.3-2.6-5.2-5.3   C44.4,5.6,46.8,3.3,49.6,3.3z"></path><path d="M33.4,2.1c0-0.7-0.6-1.3-1.3-1.3c-4.4,0-8.7,0.9-12.7,2.7C14.4,5.8,10,9.4,6.8,13.9C3,19.2,1,25.4,1,32   c0,7.3,2.6,14.3,7.2,19.9c3.1,3.7,7,6.6,11.3,8.5c4,1.8,8.3,2.7,12.7,2.7c0.7,0,1.3-0.6,1.3-1.3s-0.6-1.3-1.3-1.3   c-4,0-8-0.8-11.7-2.5c-4-1.8-7.6-4.5-10.4-7.8C5.8,45.2,3.5,38.7,3.5,32c0-6,1.9-11.8,5.4-16.7c3-4.1,7-7.4,11.6-9.5   c3.7-1.6,7.6-2.5,11.6-2.5C32.8,3.3,33.4,2.8,33.4,2.1z"></path><path d="M32.1,20.3c0.3,0,0.5-0.2,0.5-0.5s-0.2-0.5-0.5-0.5c-5,0-9.9-0.6-14.5-1.8c0.3-2.5,0.8-5,1.4-7.4l0-0.1   c0-0.3-0.2-0.5-0.5-0.5c-0.2,0-0.4,0.2-0.5,0.4c-0.6,2.4-1,4.9-1.4,7.4c-1.7-0.4-3.3-1-4.9-1.5c-0.3-0.1-0.5,0-0.6,0.3   c-0.1,0.3,0,0.5,0.3,0.6c1.6,0.6,3.3,1.1,5.1,1.6c-0.6,4.2-0.8,8.7-0.9,13.2H6.2c-0.3,0-0.5,0.2-0.5,0.5s0.2,0.5,0.5,0.5h9.4   c0,5.4,0.4,10.6,1.2,15.5c-1.3,0.3-2.6,0.7-3.9,1.2c-0.3,0.1-0.4,0.4-0.3,0.6c0.1,0.2,0.3,0.3,0.5,0.3c0.1,0,0.1,0,0.2,0   c1.2-0.4,2.5-0.8,3.7-1.1c0.3,1.8,0.6,3.5,1,5.1c0,0.2,0.2,0.4,0.5,0.4c0.3,0,0.5-0.2,0.5-0.5l0-0.1c-0.4-1.6-0.7-3.4-1-5.2   c4.6-1.1,9.3-1.7,14.1-1.7c0.3,0,0.5-0.2,0.5-0.5S32.4,46,32.1,46c-4.9,0-9.7,0.6-14.3,1.7c-0.7-4.8-1.1-9.9-1.2-15.2h15.5   c0.3,0,0.5-0.2,0.5-0.5s-0.2-0.5-0.5-0.5H16.6c0-4.5,0.3-8.8,0.8-13C22.1,19.7,27.1,20.3,32.1,20.3z"></path></g></svg>