<?xml version="1.0" encoding="utf-8"?>
<!-- Generator: Adobe Illustrator 18.0.0, SVG Export Plug-In . SVG Version: 6.00 Build 0)  -->
<!DOCTYPE svg PUBLIC "-//W3C//DTD SVG 1.1//EN" "http://www.w3.org/Graphics/SVG/1.1/DTD/svg11.dtd">
<svg version="1.1" id="Layer_1" xmlns="http://www.w3.org/2000/svg" xmlns:xlink="http://www.w3.org/1999/xlink" x="0px" y="0px"
	 viewBox="0 0 300 300" enable-background="new 0 0 300 300" xml:space="preserve">
<title>avatar simple JADI</title>
<path fill="#476991" d="M222.8,125.5c0,1.8,1.5,3.3,3.4,3.3l0,0c3.7,0,8-5.9,8-13.5c0-7.6-4.1-13.2-7.8-13.5
	c-1.9-0.1-3.5,1.3-3.6,3.1c-0.1,1.6,0.9,3.1,2.4,3.5c1.6,1.9,2.4,4.4,2.2,6.9c0.2,2.5-0.6,5-2.2,6.9
	C223.7,122.7,222.8,124,222.8,125.5z"/>
<path fill="#476991" d="M74.8,122.1c-1.6-1.9-2.4-4.4-2.2-6.9c-0.1-2.5,0.7-5,2.2-6.9c1.8-0.4,3-2.1,2.7-4c-0.4-1.8-2.1-3-4-2.7
	c-3.7,0.3-7.8,5.9-7.8,13.5c0,7.6,4.2,13.5,8,13.5l0,0c1.9,0.1,3.5-1.2,3.6-3.1c0.1-1.7-1-3.2-2.6-3.6L74.8,122.1z"/>
<path fill="#476991" stroke="#476991" stroke-width="4" stroke-miterlimit="10" d="M226.5,214.8l-51.4-13.5v-4.5
	c26-8.8,46.1-29.6,54.1-55.8c10.1-1.8,17.8-12.7,17.8-26c0-12.5-7-22.9-16.4-25.5v-3c0-4.7-0.5-9.4-1.3-14l0,0l0,0
	c-0.3-1.4-0.5-2.8-0.9-4.2c0-0.5-0.3-1.1-0.4-1.7c-0.6-2.3-1.3-4.6-2.1-6.8l-0.7-1.8c-0.9-2.5-1.9-4.8-3.1-7l-0.5-1.1
	c-0.6-1.2-1.3-2.4-1.9-3.6l-1.1-1.8c-1.1-1.8-2.3-3.6-3.6-5.3l-1.5-2c-0.8-1-1.5-2-2.3-2.9s-2.2-2.4-3.3-3.6s-1.7-1.7-2.6-2.5
	l-2.1-1.9c-1.4-1.3-2.9-2.5-4.5-3.6l-2.2-1.7l-3.1-2.1l-2-1.2c-1.9-1.1-3.8-2.2-5.8-3.2l-0.9-0.5l0,0c-21.9-10.6-47.5-10.6-69.4,0
	l0,0l-0.9,0.5c-2,1-3.9,2.1-5.8,3.2l-2,1.2l-3.1,2.1l-2.2,1.7c-1.5,1.1-3,2.3-4.5,3.6l-2.1,1.9c-0.9,0.8-1.8,1.7-2.6,2.5
	c-0.8,0.9-2.2,2.4-3.3,3.6c-1,1.2-1.6,1.9-2.3,2.9l-1.5,2c-1.3,1.7-2.4,3.5-3.6,5.3l-1.1,1.8c-0.7,1.2-1.3,2.3-1.9,3.6L78,51
	c-1.1,2.2-2.1,4.5-3,6.9l-0.7,1.8c-0.8,2.2-1.5,4.5-2.1,6.8c0,0.5-0.3,1.1-0.4,1.7c-0.3,1.4-0.6,2.8-0.9,4.2l0,0l0,0
	c-0.8,4.6-1.3,9.3-1.3,14v3.1c-9.4,2.6-16.4,13.1-16.4,25.5c0,13.5,7.6,24.2,17.8,26c8,26.2,28.1,46.9,54,55.7v4.5l-51.5,13.7
	c-19.3,5.2-32.7,22.6-32.7,42.6v33.2c0,1.9,1.5,3.4,3.4,3.4h211.8c1.9,0,3.4-1.5,3.4-3.4v-33.2C259.2,237.4,245.8,220,226.5,214.8z
	 M186.6,22.7L186.6,22.7c2.1,1.2,4.1,2.5,6,3.9l0.7,0.5c1.7,1.3,3.4,2.6,5.1,4l0.9,0.8c1.6,1.4,3.1,2.9,4.5,4.5l0.8,0.9
	c1.4,1.6,2.7,3.2,4,4.9l0.7,0.9c1.3,1.7,2.5,3.5,3.6,5.4l0.5,0.8c1.1,1.9,2.2,3.9,3.1,5.9l0.3,0.6c1,2.1,1.9,4.3,2.6,6.5v0.4
	c0.8,2.3,1.5,4.6,2,7l0,0h-3.6c-17.4,0-31.5-14.1-31.5-31.5L186.6,22.7z M179.8,19.2v19.1c0,21.1,17.1,38.1,38.2,38.2h4.9
	c0.5,3.3,0.7,6.7,0.8,10.1v3.6l-21.2,6.9c-2.1-8.2-9.5-14-18-13.9h-13.5c-10.2-0.1-18.6,7.9-19.2,18h-3.9c-0.6-10.1-9-18.1-19.2-18
	h-13.5c-8.5-0.1-15.9,5.7-18,13.9l-21-6.9v-3.6c0-3.4,0.3-6.7,0.8-10.1h4.9c21.1,0,38.1-17.1,38.2-38.2V19.2c19-8.6,40.8-8.6,59.9,0
	L179.8,19.2z M158.6,103c-0.3-6.9,5-12.8,11.9-13.1c0.2,0,0.4,0,0.6,0h13.5c6.4,0,11.7,5.2,11.7,11.7l0,0v14.8
	c0,5.6-4.5,10.1-10.1,10.1c-1.2,0-2.3-0.2-3.4-0.6l-11.2-4c-6.1-2.1-10.6-7.2-12.1-13.5l-0.6-2.9c0,0,0,0,0-0.3c0-0.2,0-0.4,0-0.6
	C159,104,158.9,103.4,158.6,103z M128.2,121.8l-11.2,4c-5.2,1.9-11-0.8-12.9-6.1c-0.4-1.1-0.6-2.3-0.6-3.4v-14.8
	c0-6.4,5.2-11.7,11.7-11.7l0,0h13.5c6.9,0,12.6,5.6,12.6,12.5c0,1-0.1,2-0.4,3l-0.8,3.1C138.7,114.7,134.2,119.7,128.2,121.8
	L128.2,121.8z M78.3,69.5c0.6-2.4,1.2-4.7,2-7v-0.4c0.8-2.2,1.6-4.3,2.6-6.4l0.3-0.6c1-2,2-4,3.2-5.9l0.4-0.8
	c1.1-1.8,2.3-3.6,3.6-5.4l0.7-0.9c1.3-1.7,2.6-3.3,4-4.9l0.8-0.9c1.4-1.5,2.9-3,4.5-4.5l0.9-0.8c1.6-1.4,3.3-2.8,5.1-4l0.7-0.5
	c1.9-1.4,3.9-2.7,6-3.9l0,0v15.6c0,17.4-14.1,31.5-31.5,31.5l0,0h-3.6L78.3,69.5z M76.7,137c-0.4-1.4-1.7-2.4-3.2-2.5
	c-7.6,0-13.5-9-13.5-19.4s5.4-18,12.3-19.2l24.7,8v12.3c0,9.3,7.5,16.8,16.8,16.9c1.9-0.1,3.8-0.4,5.6-1.1l11.2-4l0,0
	c8.1-2.9,14.3-9.6,16.3-18l0.5-2.2h5.1l0.5,2.2c2.1,8.4,8.2,15.1,16.4,18l11.1,4c1.8,0.7,3.8,1,5.7,1c9.3-0.1,16.8-7.6,16.8-16.9
	V104l24.7-8c7,1.2,12.3,9.3,12.3,19.2s-6.1,19.3-13.5,19.4c-1.5,0.1-2.7,1.1-3.1,2.5c-7.2,26.2-27.5,46.7-53.6,54.3l-2.8,0.7
	l-2.7,0.6l-2.9,0.5l-3.2,0.4l-2.4,0.3c-1.9,0-3.8,0.3-5.7,0.3h-0.5C115.4,193.5,85.6,170.3,76.7,137L76.7,137z M149.4,200.9h0.6
	c1.9,0,3.9,0,5.8-0.2h1.9l4.3-0.5l1.5-0.6c1.6-0.3,3.1-0.6,4.5-0.9v11.1c0.4,3.4-6.8,7.9-18,7.9s-18.4-4.5-18.4-7.7v-10.6
	c5.5,1.1,11,1.7,16.6,1.7L149.4,200.9L149.4,200.9z M252.5,287.2h-16.2v-14.9c0-1.9-1.5-3.4-3.4-3.4c-1.9,0-3.4,1.5-3.4,3.4v14.9
	H70.4v-14.9c0-1.9-1.5-3.4-3.4-3.4c-1.9,0-3.4,1.5-3.4,3.4v14.9H47.4v-29.8c0-16.9,11.4-31.6,27.7-36l49.5-13.2v1.7
	c0,8.3,10.8,14.5,25.2,14.5c14.4,0,25.2-6.3,25.2-14.5v-1.7l49.5,13.2c16.3,4.4,27.6,19.1,27.7,36L252.5,287.2z"/>
<path fill="#476991" d="M143,23.3c5.2-0.5,20.2-0.5,26.8,4.5c1.5,1.1,3.6,0.8,4.7-0.7c1.1-1.5,0.8-3.6-0.7-4.7l0,0
	c-9.9-7.5-30.5-5.8-31.5-5.8c-1.9,0.2-3.2,1.8-3.1,3.7C139.4,22.2,141,23.6,143,23.3L143,23.3z"/>
</svg>
