<svg fill="#476991" xmlns="http://www.w3.org/2000/svg" xmlns:xlink="http://www.w3.org/1999/xlink" xml:space="preserve" version="1.1" style="shape-rendering:geometricPrecision;text-rendering:geometricPrecision;image-rendering:optimizeQuality;" viewBox="0 0 333 333" x="0px" y="0px" fill-rule="evenodd" clip-rule="evenodd"><defs><style type="text/css">
   
    .fil0 {fill:#476991}
   
  </style></defs><g><path class="fil0" d="M307 85c-4,9 -7,28 -1,37l21 6c7,2 5,4 0,6l-10 2c18,14 8,52 -4,58 6,2 9,4 1,6l-12 3c-2,6 -4,15 -4,24 0,5 1,9 4,13l21 5c7,2 4,5 -1,6l-176 37c0,0 -122,-31 -130,-35 -12,-6 -23,-44 -5,-59l-5 -1c-5,-1 -7,-4 0,-6l21 -6c6,-9 3,-27 -1,-37l-11 -2c-5,-1 -7,-4 -1,-6l6 -1c-17,-9 -21,-63 7,-63l178 -27 114 32c7,2 5,4 0,5l-12 3zm-124 145l-7 -1 -28 6 -2 44 149 -33c-8,-11 -6,-29 -3,-41l-109 25zm-46 46l1 -38 -117 -39c-17,2 -9,41 -1,45 6,4 93,26 117,32zm-101 -130c4,13 6,31 -2,42l148 32 -1 -44c-49,-10 -91,-18 -145,-30zm156 72l-2 -38 117 -39c17,2 10,41 2,45 -6,3 -94,26 -117,32zm105 -131l-145 30 -1 44 149 -33c-9,-11 -7,-29 -3,-41zm-155 72l1 -39 -117 -39c-17,2 -10,42 -2,46 7,3 94,25 118,32z"></path></g></svg>