<svg fill="#476991" xmlns="http://www.w3.org/2000/svg" xmlns:xlink="http://www.w3.org/1999/xlink" version="1.1" x="0px" y="0px" viewBox="0 0 164 164" enable-background="new 0 0 164 164" xml:space="preserve"><path fill-rule="evenodd" clip-rule="evenodd" d="M110.334,110.093c4.435,0,8.029,3.541,8.029,7.911  c0,4.368-3.595,7.909-8.029,7.909c-4.436,0-8.031-3.541-8.031-7.909C102.303,113.634,105.898,110.093,110.334,110.093  L110.334,110.093z M42.801,128.707h33.517v5.466H42.801V128.707L42.801,128.707z M54.934,23.303h53.813v5.466H54.934V23.303  L54.934,23.303z M42.801,66.252h78.079v5.465H42.801V66.252L42.801,66.252z M42.801,53.337h78.079v5.466H42.801V53.337  L42.801,53.337z M42.801,40.422h78.079v5.465H42.801V40.422L42.801,40.422z M142.8,164h4.484v-4.485V4.804V0.32H142.8H20.88h-4.484  v4.484v154.71V164h4.484H142.8L142.8,164z M25.365,155.03h112.95V9.289H25.365V155.03L25.365,155.03z M117.8,132.613  c5.492-2.603,8.834-8.166,8.834-14.609c0-21.516-32.602-21.075-32.602,0c0,5.352,2.334,11.156,8.466,14.401  c0,3.104,0,11.19,0,14.294l7.995-2.719l7.307,2.719V132.613z"></path></svg>