<?xml version="1.0" encoding="utf-8"?>
<!-- Generator: Adobe Illustrator 18.0.0, SVG Export Plug-In . SVG Version: 6.00 Build 0)  -->
<!DOCTYPE svg PUBLIC "-//W3C//DTD SVG 1.1//EN" "http://www.w3.org/Graphics/SVG/1.1/DTD/svg11.dtd">
<svg version="1.1" id="Layer_1" xmlns="http://www.w3.org/2000/svg" xmlns:xlink="http://www.w3.org/1999/xlink" x="0px" y="0px"
	 viewBox="0 0 300 300" enable-background="new 0 0 300 300" xml:space="preserve">
<g>
	<polyline fill="none" stroke="#476991" stroke-width="10" stroke-miterlimit="10" points="191.2,233.9 191.2,162.9 282.1,162.9 	
		"/>
</g>
<g>
	<polyline fill="none" stroke="#476991" stroke-width="10" stroke-miterlimit="10" points="103,300 103,229 193.9,229 	"/>
</g>
<g>
	<line fill="none" stroke="#476991" stroke-width="10" stroke-miterlimit="10" x1="14.8" y1="294" x2="105.6" y2="294"/>
</g>
<g>
	<path fill="#476991" d="M61.1,129.9c9.7,0,17.6,7.9,17.6,17.6c0,9.7-7.9,17.6-17.6,17.6s-17.6-7.8-17.6-17.6
		C43.5,137.8,51.4,129.9,61.1,129.9z"/>
	<path fill="#476991" d="M90.4,229.8c0,6-4.8,10.8-10.8,10.8h-0.1v35.8c0,6-4.7,10.8-10.5,10.8H53c-5.8,0-10.5-4.8-10.5-10.8v-35.8
		h-0.1c-5.9,0-10.8-4.8-10.8-10.8v-50.5c0-6,4.8-10.8,10.8-10.8h37.1c6,0,10.8,4.8,10.8,10.8L90.4,229.8L90.4,229.8z"/>
</g>
<g>
	<path fill="#476991" d="M241.9,0c9.7,0,17.6,7.9,17.6,17.6s-7.9,17.6-17.6,17.6c-9.7,0-17.6-7.8-17.6-17.6
		C224.3,7.9,232.2,0,241.9,0z"/>
	<path fill="#476991" d="M271.2,99.9c0,6-4.8,10.8-10.8,10.8h-0.1v35.8c0,6-4.7,10.8-10.5,10.8h-16.1c-5.8,0-10.5-4.8-10.5-10.8
		v-35.8h-0.1c-5.9,0-10.8-4.8-10.8-10.8V49.4c0-6,4.8-10.8,10.8-10.8h37.1c6,0,10.8,4.8,10.8,10.8v50.5H271.2z"/>
</g>
</svg>
