<?xml version="1.0" encoding="utf-8"?>
<!-- Generator: Adobe Illustrator 18.0.0, SVG Export Plug-In . SVG Version: 6.00 Build 0)  -->
<!DOCTYPE svg PUBLIC "-//W3C//DTD SVG 1.1//EN" "http://www.w3.org/Graphics/SVG/1.1/DTD/svg11.dtd">
<svg version="1.1" id="Layer_1" xmlns="http://www.w3.org/2000/svg" xmlns:xlink="http://www.w3.org/1999/xlink" x="0px" y="0px"
	 viewBox="0 0 300 300" enable-background="new 0 0 300 300" xml:space="preserve">
<path fill="#476991" stroke="#476991" stroke-width="4" stroke-miterlimit="10" d="M183.9,191.8l-0.6-0.2c-2.9-0.9-5.3-1.7-8.3-9.8
	c9.4-7.9,17.9-18.8,23.7-29.7c6.8-0.8,13.4-11.8,16.9-22.5c2.1-6.6,3.2-13.1,2.9-18.4c-0.3-6.2-2.2-9.1-4.2-10.5
	c4.8-6.8,9.7-17.1,11.2-31.7c1.3-12.6-3.5-33.1-17.1-48.3c-10.6-11.7-24.6-18-40.5-18c-18.1,0-38.5,7.8-60.9,23.2
	c-0.3,0-0.7,0-1.1,0l-4.5-0.1c-7,0-15.7,1-21.3,8.8C72.1,46,73.7,67.7,85,101.2c-1.7,1.5-3.2,4.5-3.5,9.9
	c-0.2,5.3,0.8,11.8,2.9,18.4c3.5,10.8,10,21.7,16.9,22.5c5.8,10.9,14.4,21.9,23.7,29.7c-2.9,8.1-5.4,8.9-8.3,9.8l-0.6,0.2
	c-47.4,15.4-75.7,53.9-75.7,102.9v2.6h219.1v-2.6C259.6,245.7,231.3,207.2,183.9,191.8z M84.3,37.7c4.2-5.9,11-6.7,17.1-6.7l4.5,0.1
	c0.9,0,1.6,0,2.3-0.1c0.4,0,0.8-0.2,1.2-0.4c21.7-15,41.4-22.7,58.5-22.7c14.4,0,27.1,5.6,36.7,16.2c12,13.4,17.1,32.4,15.8,44.3
	c-2.2,20.6-11.8,32-16.6,36.5c-6.7-21.2-26.2-34.4-30.5-34.4c-1.4,0-2.9,1.4-2.9,2.8c0,1.6,2.6,10.8,5.1,19
	c-15-9.1-48.2-21.6-62.3-21.6c-2.9,0-5,0.5-6.6,1.5c-0.7,0.4-1.1,1.1-1.2,1.9c-1.8,18-11.3,23.5-15.6,25.1
	C79.3,68,77.4,47.4,84.3,37.7z M105.2,148.2c-0.5-1-1.7-1.6-2.8-1.4c-2.3,0.4-8.8-5.7-13-19c-1.9-6-2.9-11.9-2.7-16.6
	c0.2-4,1.2-6.1,2.1-6.5c2.5-0.5,18.4-4.6,21.5-28.7c0.6-0.1,1.5-0.3,2.8-0.3c16.5,0,59.7,18.3,65,24.9c0.5,0.6,1.4,1,2.1,1
	c1.3-0.1,2.6-1.1,2.6-2.6c0-0.5-0.2-1-0.4-1.4c-2.3-7.5-4.6-15.5-5.9-20.2c6.5,4.2,19.4,15.5,23.3,32.5c0.2,0.8,0.8,1.5,1.5,1.8
	c0.3,0.1,0.6,0.2,1,0.2c0.5,0,1-0.1,1.4-0.4c0.3-0.2,3.5-2.3,7.4-6.8c0.9,0.3,2,2.5,2.2,6.6c0.2,4.7-0.7,10.6-2.7,16.6
	c-4.3,13.3-10.8,19.4-13,19c-1.1-0.2-2.3,0.3-2.8,1.4C183.7,170.2,163.6,188,150,188C136.4,188,116.3,170.2,105.2,148.2z
	 M117.7,196.7l0.6-0.2c4.2-1.3,7.6-3,11-11.4c6.9,5,14.1,8.1,20.7,8.1c6.6,0,13.8-3.1,20.7-8.1c3.3,8.4,6.8,10.1,11,11.4l0.6,0.2
	c4,1.3,7.9,2.8,11.6,4.4c-0.4,8.6-17.9,17.8-43.9,17.8c-25.9,0-43.4-9.1-43.9-17.8C109.9,199.5,113.7,198,117.7,196.7z M45.6,292.1
	c0.7-31.8,14-58.7,37-76.9l59.1,76.9H45.6z M148.2,292.1l-61.5-80c4.5-3.2,9.4-6.1,14.5-8.7c2.6,11.8,23.1,20.6,48.7,20.6
	c25.6,0,46.1-8.9,48.7-20.6c5,2.5,9.7,5.3,14.1,8.4l-61.7,80.3L148.2,292.1L148.2,292.1z M157.7,292.1l59.3-77.2
	c23.3,18.3,36.7,45.3,37.4,77.2H157.7z"/>
</svg>
